<svg xmlns="http://www.w3.org/2000/svg" xmlns:xlink="http://www.w3.org/1999/xlink" width="600" zoomAndPan="magnify" viewBox="0 0 450 135.000003" height="180" preserveAspectRatio="xMidYMid meet" version="1.2"><defs/><g id="5591fc131d"><g style="fill:#2e2e2e;fill-opacity:1;"><g transform="translate(12.428598, 100.067433)"><path style="stroke:none" d="M 46.921875 -34.609375 C 46.285156 -34.546875 45.8125 -34.515625 45.5 -34.515625 L 41.8125 -34.3125 C 40.488281 -34.207031 37.378906 -33.910156 32.484375 -33.421875 C 27.585938 -32.929688 24.867188 -32.648438 24.328125 -32.578125 L 18.546875 -31.671875 L 17.984375 -10.84375 C 17.953125 -7.226562 17.90625 -4.609375 17.84375 -2.984375 L 17.640625 1.0625 C 17.566406 2.75 17.328125 3.691406 16.921875 3.890625 C 16.515625 4.097656 15.65625 3.765625 14.34375 2.890625 C 13.125 2.148438 12.039062 1.390625 11.09375 0.609375 L 6.484375 -3.1875 C 5.035156 -4.34375 4.328125 -5.238281 4.359375 -5.875 C 4.359375 -6.175781 4.644531 -6.828125 5.21875 -7.828125 C 5.789062 -8.828125 6.253906 -9.992188 6.609375 -11.328125 C 6.960938 -12.660156 7.300781 -14.515625 7.625 -16.890625 C 7.945312 -19.273438 8.160156 -21.210938 8.265625 -22.703125 L 8.765625 -30.703125 L 8.921875 -37.1875 L 8.609375 -48.140625 C 8.546875 -50.335938 8.335938 -52.648438 7.984375 -55.078125 C 7.628906 -57.515625 7.253906 -59.492188 6.859375 -61.015625 C 6.472656 -62.535156 6.007812 -63.898438 5.46875 -65.109375 C 4.925781 -66.328125 4.179688 -67.492188 3.234375 -68.609375 C 2.296875 -69.722656 1.914062 -70.421875 2.09375 -70.703125 C 2.28125 -70.992188 2.5625 -71.164062 2.9375 -71.21875 C 3.3125 -71.269531 3.679688 -71.296875 4.046875 -71.296875 C 5.160156 -71.191406 6.488281 -71.035156 8.03125 -70.828125 C 9.570312 -70.628906 11.066406 -70.378906 12.515625 -70.078125 L 19 -68.5625 C 20.1875 -68.363281 20.867188 -68.101562 21.046875 -67.78125 C 21.234375 -67.457031 21.191406 -66.789062 20.921875 -65.78125 C 20.421875 -64.050781 20.109375 -62.820312 19.984375 -62.09375 C 19.867188 -61.375 19.726562 -59.359375 19.5625 -56.046875 L 19 -48.046875 L 18.75 -39.9375 C 21.050781 -40.375 23.316406 -40.8125 25.546875 -41.25 C 27.773438 -41.6875 30.226562 -42.269531 32.90625 -43 C 35.59375 -43.726562 37.734375 -44.582031 39.328125 -45.5625 L 42.265625 -47.28125 L 47.03125 -38.3125 C 47.03125 -39.320312 47.019531 -41.210938 47 -43.984375 C 46.976562 -46.753906 46.800781 -49.863281 46.46875 -53.3125 C 46.132812 -56.757812 45.785156 -59.273438 45.421875 -60.859375 C 45.066406 -62.441406 44.617188 -64.070312 44.078125 -65.75 C 43.546875 -67.425781 43.007812 -68.664062 42.46875 -69.46875 L 41.140625 -71.296875 C 40.941406 -71.640625 40.875 -71.882812 40.9375 -72.03125 C 41.007812 -72.1875 41.265625 -72.3125 41.703125 -72.40625 C 42.347656 -72.507812 43.242188 -72.460938 44.390625 -72.265625 L 48.296875 -71.546875 C 49.816406 -71.242188 51.203125 -70.957031 52.453125 -70.6875 L 56.953125 -69.625 C 58.640625 -69.25 59.539062 -68.875 59.65625 -68.5 C 59.78125 -68.132812 59.625 -67.394531 59.1875 -66.28125 C 58.78125 -65.300781 58.390625 -63.289062 58.015625 -60.25 C 57.648438 -57.207031 57.46875 -55.453125 57.46875 -54.984375 L 56.8125 -39.21875 L 56.453125 -12.921875 C 56.347656 -9.773438 56.269531 -7.359375 56.21875 -5.671875 C 56.164062 -3.984375 56.097656 -2.554688 56.015625 -1.390625 C 55.929688 -0.222656 55.835938 0.785156 55.734375 1.640625 C 55.640625 2.503906 55.472656 3.035156 55.234375 3.234375 C 54.992188 3.441406 54.382812 3.3125 53.40625 2.84375 C 52.15625 2.300781 50.539062 1.320312 48.5625 -0.09375 C 46.59375 -1.519531 45.097656 -2.65625 44.078125 -3.5 C 43.066406 -4.34375 42.550781 -5.023438 42.53125 -5.546875 C 42.519531 -6.066406 42.882812 -6.988281 43.625 -8.3125 C 44.132812 -9.257812 44.582031 -10.8125 44.96875 -12.96875 C 45.363281 -15.132812 45.644531 -16.789062 45.8125 -17.9375 C 45.976562 -19.082031 46.144531 -20.859375 46.3125 -23.265625 L 46.828125 -33.140625 Z M 46.921875 -34.609375 "/></g></g><g style="fill:#2e2e2e;fill-opacity:1;"><g transform="translate(72.944429, 100.067433)"><path style="stroke:none" d="M 35.875 -9.328125 C 34.5625 -8.171875 33.351562 -7.128906 32.25 -6.203125 C 31.15625 -5.273438 29.695312 -4.210938 27.875 -3.015625 C 26.050781 -1.816406 23.960938 -0.894531 21.609375 -0.25 C 19.265625 0.382812 17.023438 0.535156 14.890625 0.203125 C 11.648438 -0.234375 9.21875 -1.335938 7.59375 -3.109375 C 5.976562 -4.890625 4.789062 -6.828125 4.03125 -8.921875 C 3.269531 -11.015625 2.769531 -13.625 2.53125 -16.75 C 2.289062 -19.875 2.304688 -22.804688 2.578125 -25.546875 C 2.890625 -28.816406 3.582031 -31.828125 4.65625 -34.578125 C 5.738281 -37.335938 7.300781 -39.890625 9.34375 -42.234375 C 11.394531 -44.585938 13.921875 -46.328125 16.921875 -47.453125 C 19.929688 -48.585938 22.941406 -49.222656 25.953125 -49.359375 C 28.921875 -49.460938 31.03125 -49.222656 32.28125 -48.640625 L 35.515625 -47.28125 C 35.453125 -48.019531 35.242188 -48.785156 34.890625 -49.578125 C 34.535156 -50.378906 34.40625 -50.867188 34.5 -51.046875 C 34.601562 -51.234375 34.875 -51.394531 35.3125 -51.53125 C 35.851562 -51.707031 37.140625 -51.5 39.171875 -50.90625 C 41.203125 -50.3125 42.765625 -49.835938 43.859375 -49.484375 C 44.953125 -49.128906 46.273438 -48.628906 47.828125 -47.984375 C 49.390625 -47.347656 50.203125 -46.867188 50.265625 -46.546875 C 50.335938 -46.222656 50.066406 -45.503906 49.453125 -44.390625 C 49.046875 -43.648438 48.628906 -42.117188 48.203125 -39.796875 C 47.785156 -37.484375 47.5625 -36.160156 47.53125 -35.828125 L 47.171875 -32.078125 C 46.898438 -29.410156 46.71875 -27.300781 46.625 -25.75 L 45.96875 -16.171875 C 45.789062 -14.273438 45.789062 -12.890625 45.96875 -12.015625 C 46.0625 -11.234375 46.269531 -10.65625 46.59375 -10.28125 C 46.914062 -9.914062 47.351562 -9.679688 47.90625 -9.578125 C 48.46875 -9.472656 49.304688 -9.84375 50.421875 -10.6875 C 51.265625 -11.332031 52.007812 -11.957031 52.65625 -12.5625 L 54.875 -14.796875 C 55.414062 -15.304688 55.796875 -15.515625 56.015625 -15.421875 C 56.234375 -15.335938 56.367188 -15 56.421875 -14.40625 C 56.472656 -13.820312 56.3125 -13.09375 55.9375 -12.21875 C 55.46875 -11.164062 55.03125 -10.21875 54.625 -9.375 C 54.21875 -8.53125 53.53125 -7.226562 52.5625 -5.46875 C 51.601562 -3.71875 50.582031 -2.222656 49.5 -0.984375 C 48.425781 0.242188 47.289062 1.269531 46.09375 2.09375 C 44.894531 2.925781 43.757812 3.425781 42.6875 3.59375 C 41.625 3.757812 40.4375 3.238281 39.125 2.03125 C 38.039062 1.113281 37.226562 -0.238281 36.6875 -2.03125 C 36.144531 -3.820312 35.890625 -5.320312 35.921875 -6.53125 Z M 35.875 -18.1875 C 36.039062 -19.34375 36.15625 -20.265625 36.21875 -20.953125 C 36.289062 -21.648438 36.335938 -23.523438 36.359375 -26.578125 C 36.378906 -29.640625 36.335938 -31.742188 36.234375 -32.890625 C 35.960938 -35.015625 35.4375 -36.539062 34.65625 -37.46875 C 33.882812 -38.40625 32.835938 -39.132812 31.515625 -39.65625 C 30.203125 -40.175781 28.632812 -40.367188 26.8125 -40.234375 C 24.71875 -40.066406 22.710938 -39.457031 20.796875 -38.40625 C 18.890625 -37.363281 17.257812 -35.796875 15.90625 -33.703125 C 14.5625 -31.609375 13.691406 -29.039062 13.296875 -26 C 12.910156 -22.957031 12.972656 -20.238281 13.484375 -17.84375 C 13.984375 -15.207031 14.816406 -13.429688 15.984375 -12.515625 C 17.148438 -11.597656 18.53125 -11.109375 20.125 -11.046875 C 21.46875 -10.941406 23.210938 -11.269531 25.359375 -12.03125 C 27.503906 -12.789062 29.59375 -13.878906 31.625 -15.296875 Z M 35.875 -18.1875 "/></g></g><g style="fill:#2e2e2e;fill-opacity:1;"><g transform="translate(129.761825, 100.067433)"><path style="stroke:none" d="M 24.625 -27.21875 C 25.132812 -26.632812 26.140625 -25.609375 27.640625 -24.140625 C 29.140625 -22.671875 31.519531 -20.644531 34.78125 -18.0625 C 38.039062 -15.476562 41.234375 -13.171875 44.359375 -11.140625 C 47.484375 -9.117188 50.238281 -7.507812 52.625 -6.3125 C 55.007812 -5.113281 56.570312 -4.285156 57.3125 -3.828125 C 58.050781 -3.367188 58.421875 -2.972656 58.421875 -2.640625 C 58.390625 -2.265625 58.019531 -1.859375 57.3125 -1.421875 C 56.601562 -0.984375 55.628906 -0.632812 54.390625 -0.375 C 53.160156 -0.125 51.597656 0.179688 49.703125 0.546875 C 47.816406 0.921875 46.25 1.160156 45 1.265625 L 40.6875 1.625 C 39.375 1.789062 38.515625 1.789062 38.109375 1.625 C 37.398438 1.382812 36.671875 0.625 35.921875 -0.65625 C 35.179688 -1.9375 33.660156 -4.234375 31.359375 -7.546875 C 29.066406 -10.859375 26.8125 -14.296875 24.59375 -17.859375 C 22.382812 -21.421875 21.046875 -23.554688 20.578125 -24.265625 L 19.71875 -25.484375 L 16.21875 -24.125 L 15.765625 -12.421875 C 15.585938 -9.648438 15.453125 -7.570312 15.359375 -6.1875 L 14.953125 -1.71875 C 14.816406 -0.132812 14.617188 1.09375 14.359375 1.96875 C 14.109375 2.851562 13.789062 3.363281 13.40625 3.5 C 13.019531 3.632812 12.453125 3.484375 11.703125 3.046875 C 10.992188 2.671875 10.125 2.066406 9.09375 1.234375 C 8.0625 0.410156 7.175781 -0.40625 6.4375 -1.21875 L 3.59375 -4.40625 C 2.613281 -5.382812 2.109375 -6.050781 2.078125 -6.40625 C 2.046875 -6.757812 2.453125 -7.765625 3.296875 -9.421875 C 3.492188 -9.796875 3.835938 -10.773438 4.328125 -12.359375 C 4.816406 -13.953125 5.226562 -15.40625 5.5625 -16.71875 C 5.90625 -18.039062 6.21875 -19.957031 6.5 -22.46875 C 6.789062 -24.988281 7.019531 -28.613281 7.1875 -33.34375 C 7.363281 -38.070312 7.519531 -41.457031 7.65625 -43.5 C 7.789062 -45.539062 7.835938 -47.140625 7.796875 -48.296875 L 7.453125 -54.78125 C 7.347656 -56.300781 7.082031 -58.125 6.65625 -60.25 C 6.238281 -62.375 5.832031 -64.070312 5.4375 -65.34375 C 5.050781 -66.613281 4.640625 -67.71875 4.203125 -68.65625 L 2.84375 -71.203125 C 2.632812 -71.609375 2.5625 -71.910156 2.625 -72.109375 C 2.695312 -72.304688 3.101562 -72.40625 3.84375 -72.40625 C 4.320312 -72.375 4.929688 -72.234375 5.671875 -71.984375 C 6.421875 -71.734375 8.019531 -71.351562 10.46875 -70.84375 C 12.914062 -70.332031 15.144531 -69.753906 17.15625 -69.109375 C 19.164062 -68.472656 20.210938 -68.003906 20.296875 -67.703125 C 20.378906 -67.398438 20.148438 -66.691406 19.609375 -65.578125 C 19.335938 -65.035156 19.101562 -64.238281 18.90625 -63.1875 L 18.390625 -60.765625 C 18.023438 -58.898438 17.789062 -57.023438 17.6875 -55.140625 L 16.671875 -38.71875 L 16.265625 -28.421875 C 19.410156 -30.691406 21.851562 -32.5 23.59375 -33.84375 C 25.332031 -35.195312 27.144531 -36.707031 29.03125 -38.375 C 30.925781 -40.050781 32.351562 -41.421875 33.3125 -42.484375 C 34.28125 -43.554688 35.296875 -44.828125 36.359375 -46.296875 C 37.421875 -47.765625 38.035156 -48.921875 38.203125 -49.765625 C 38.378906 -50.609375 38.578125 -51.113281 38.796875 -51.28125 C 39.015625 -51.445312 39.476562 -51.363281 40.1875 -51.03125 C 40.625 -50.757812 41.195312 -50.234375 41.90625 -49.453125 L 43.9375 -47.125 C 44.40625 -46.488281 45.28125 -45.195312 46.5625 -43.25 C 47.851562 -41.3125 48.648438 -39.859375 48.953125 -38.890625 C 49.253906 -37.929688 49.335938 -37.300781 49.203125 -37 C 49.035156 -36.65625 48.382812 -36.378906 47.25 -36.171875 C 46.125 -35.972656 44.710938 -35.519531 43.015625 -34.8125 L 35.125 -31.71875 L 29.84375 -29.4375 Z M 24.625 -27.21875 "/></g></g><g style="fill:#2e2e2e;fill-opacity:1;"><g transform="translate(189.061732, 100.067433)"><path style="stroke:none" d="M 4 -49.25 L 6.84375 -48.546875 C 7.925781 -48.242188 9.410156 -47.769531 11.296875 -47.125 C 13.191406 -46.488281 15.035156 -45.859375 16.828125 -45.234375 C 18.617188 -44.609375 19.535156 -44.148438 19.578125 -43.859375 C 19.628906 -43.566406 19.503906 -43.132812 19.203125 -42.5625 C 18.734375 -41.65625 18.234375 -40.3125 17.703125 -38.53125 C 17.179688 -36.757812 16.800781 -34.5625 16.5625 -31.9375 C 16.332031 -29.320312 16.207031 -25.945312 16.1875 -21.8125 C 16.175781 -17.675781 16.445312 -14.972656 17 -13.703125 C 17.5625 -12.441406 18.769531 -11.207031 20.625 -10 C 22.476562 -8.800781 25.769531 -9.132812 30.5 -11 C 33 -11.945312 34.738281 -13.066406 35.71875 -14.359375 C 36.695312 -15.660156 37.320312 -17.273438 37.59375 -19.203125 C 37.863281 -21.128906 37.664062 -26.265625 37 -34.609375 C 36.726562 -37.578125 36.515625 -39.472656 36.359375 -40.296875 C 36.203125 -41.128906 35.921875 -42.15625 35.515625 -43.375 C 35.117188 -44.59375 34.757812 -45.53125 34.4375 -46.1875 C 34.113281 -46.84375 33.707031 -47.445312 33.21875 -48 C 32.726562 -48.5625 32.5 -48.976562 32.53125 -49.25 C 32.5625 -49.519531 32.765625 -49.679688 33.140625 -49.734375 C 33.515625 -49.785156 34.070312 -49.742188 34.8125 -49.609375 L 38.3125 -48.90625 C 39.726562 -48.59375 41.46875 -48.082031 43.53125 -47.375 L 49.453125 -45.203125 C 50.472656 -44.828125 51.003906 -44.503906 51.046875 -44.234375 C 51.097656 -43.960938 50.972656 -43.523438 50.671875 -42.921875 C 50.234375 -42.078125 49.863281 -41.046875 49.5625 -39.828125 C 49.257812 -38.609375 48.960938 -37.117188 48.671875 -35.359375 C 48.378906 -33.609375 48.203125 -31.160156 48.140625 -28.015625 L 47.9375 -12.359375 C 47.875 -11.316406 47.707031 -8.414062 47.4375 -3.65625 L 47.171875 0.5625 C 47.109375 1.570312 46.914062 2.296875 46.59375 2.734375 C 46.269531 3.171875 45.847656 3.429688 45.328125 3.515625 C 44.804688 3.609375 44.035156 3.179688 43.015625 2.234375 C 41.128906 0.609375 40.117188 -0.320312 39.984375 -0.5625 L 37.59375 -3.796875 C 35.769531 -2.710938 34.039062 -1.816406 32.40625 -1.109375 C 30.769531 -0.398438 28.363281 0.0507812 25.1875 0.25 C 21.84375 0.519531 18.742188 0.132812 15.890625 -0.90625 C 13.035156 -1.957031 10.929688 -3.757812 9.578125 -6.3125 C 8.222656 -8.863281 7.410156 -11.078125 7.140625 -12.953125 C 6.867188 -14.828125 6.664062 -17.765625 6.53125 -21.765625 C 6.394531 -25.765625 6.21875 -29.382812 6 -32.625 C 5.78125 -35.875 5.59375 -38.101562 5.4375 -39.3125 C 5.289062 -40.53125 5.085938 -41.570312 4.828125 -42.4375 C 4.578125 -43.300781 4.234375 -44.222656 3.796875 -45.203125 C 3.359375 -46.179688 2.9375 -47 2.53125 -47.65625 C 2.125 -48.3125 1.953125 -48.75 2.015625 -48.96875 C 2.085938 -49.195312 2.257812 -49.34375 2.53125 -49.40625 C 2.800781 -49.476562 3.289062 -49.425781 4 -49.25 Z M 4 -49.25 "/></g></g><g style="fill:#2e2e2e;fill-opacity:1;"><g transform="translate(240.914108, 100.067433)"><path style="stroke:none" d="M 16.46875 -33.703125 L 16.0625 -14.890625 C 15.925781 -11.410156 15.789062 -8.8125 15.65625 -7.09375 L 15.203125 -1.671875 C 15.066406 0.222656 14.914062 1.523438 14.75 2.234375 C 14.582031 2.941406 14.351562 3.394531 14.0625 3.59375 C 13.769531 3.800781 13.132812 3.648438 12.15625 3.140625 C 11.3125 2.765625 10.09375 2.035156 8.5 0.953125 C 6.914062 -0.117188 5.867188 -0.890625 5.359375 -1.359375 C 4.859375 -1.835938 4.210938 -2.53125 3.421875 -3.4375 C 2.628906 -4.351562 2.222656 -5.039062 2.203125 -5.5 C 2.179688 -5.957031 2.53125 -6.757812 3.25 -7.90625 C 3.71875 -8.71875 4.101562 -9.660156 4.40625 -10.734375 C 4.707031 -11.816406 5.050781 -13.515625 5.4375 -15.828125 C 5.832031 -18.148438 6.171875 -20.675781 6.453125 -23.40625 C 6.742188 -26.144531 6.914062 -29.375 6.96875 -33.09375 C 7.019531 -36.8125 6.976562 -40.441406 6.84375 -43.984375 C 6.707031 -46.617188 6.535156 -49.132812 6.328125 -51.53125 C 6.128906 -53.9375 5.894531 -56.285156 5.625 -58.578125 C 5.351562 -60.878906 5.066406 -62.796875 4.765625 -64.328125 C 4.460938 -65.867188 4.070312 -67.210938 3.59375 -68.359375 L 2.375 -70.796875 C 2.144531 -71.265625 2.0625 -71.609375 2.125 -71.828125 C 2.195312 -72.046875 2.453125 -72.238281 2.890625 -72.40625 C 3.398438 -72.582031 4.210938 -72.519531 5.328125 -72.21875 L 10.234375 -70.890625 L 16.375 -68.5625 C 17.488281 -68.800781 18.601562 -69.035156 19.71875 -69.265625 C 20.832031 -69.503906 22.671875 -69.832031 25.234375 -70.25 C 27.804688 -70.675781 30.59375 -70.859375 33.59375 -70.796875 C 37.039062 -70.691406 40.015625 -70.148438 42.515625 -69.171875 C 45.015625 -68.191406 47.300781 -66.675781 49.375 -64.625 C 51.457031 -62.582031 52.769531 -60.445312 53.3125 -58.21875 C 53.851562 -55.988281 53.90625 -53.691406 53.46875 -51.328125 C 52.65625 -47.242188 51.113281 -44.113281 48.84375 -41.9375 C 46.582031 -39.757812 43.847656 -37.96875 40.640625 -36.5625 C 37.429688 -35.15625 34.8125 -34.382812 32.78125 -34.25 L 28.78125 -33.84375 C 29.96875 -32.289062 31.53125 -30.304688 33.46875 -27.890625 C 35.414062 -25.472656 37.660156 -23 40.203125 -20.46875 C 42.753906 -17.9375 45.445312 -15.597656 48.28125 -13.453125 C 51.125 -11.304688 53.671875 -9.488281 55.921875 -8 C 58.171875 -6.519531 59.734375 -5.457031 60.609375 -4.8125 C 61.484375 -4.164062 61.90625 -3.644531 61.875 -3.25 C 61.800781 -2.84375 61.441406 -2.46875 60.796875 -2.125 C 60.160156 -1.789062 59.253906 -1.519531 58.078125 -1.3125 L 53.15625 -0.203125 C 51.46875 0.128906 49.710938 0.378906 47.890625 0.546875 C 46.066406 0.722656 44.5625 0.796875 43.375 0.765625 C 41.75 0.765625 40.582031 0.550781 39.875 0.125 C 39.164062 -0.289062 38.375 -1.582031 37.5 -3.75 L 31.671875 -15.40625 L 26.203125 -27.765625 L 23.46875 -33.546875 Z M 16.421875 -38.609375 C 17.835938 -38.742188 19.203125 -38.894531 20.515625 -39.0625 C 21.835938 -39.238281 23.585938 -39.570312 25.765625 -40.0625 C 27.941406 -40.550781 30.335938 -41.453125 32.953125 -42.765625 C 35.578125 -44.085938 37.445312 -45.5 38.5625 -47 C 39.675781 -48.5 40.300781 -50.363281 40.4375 -52.59375 C 40.570312 -54.820312 40.070312 -56.726562 38.9375 -58.3125 C 37.8125 -59.90625 36.25 -60.957031 34.25 -61.46875 C 31.039062 -62.207031 28.035156 -61.546875 25.234375 -59.484375 L 21.4375 -56.90625 L 17.78125 -63.34375 C 17.507812 -59.757812 17.34375 -57.070312 17.28125 -55.28125 L 16.71875 -43.328125 Z M 16.421875 -38.609375 "/></g></g><g style="fill:#2e2e2e;fill-opacity:1;"><g transform="translate(303.507141, 100.067433)"><path style="stroke:none" d="M 35.875 -9.328125 C 34.5625 -8.171875 33.351562 -7.128906 32.25 -6.203125 C 31.15625 -5.273438 29.695312 -4.210938 27.875 -3.015625 C 26.050781 -1.816406 23.960938 -0.894531 21.609375 -0.25 C 19.265625 0.382812 17.023438 0.535156 14.890625 0.203125 C 11.648438 -0.234375 9.21875 -1.335938 7.59375 -3.109375 C 5.976562 -4.890625 4.789062 -6.828125 4.03125 -8.921875 C 3.269531 -11.015625 2.769531 -13.625 2.53125 -16.75 C 2.289062 -19.875 2.304688 -22.804688 2.578125 -25.546875 C 2.890625 -28.816406 3.582031 -31.828125 4.65625 -34.578125 C 5.738281 -37.335938 7.300781 -39.890625 9.34375 -42.234375 C 11.394531 -44.585938 13.921875 -46.328125 16.921875 -47.453125 C 19.929688 -48.585938 22.941406 -49.222656 25.953125 -49.359375 C 28.921875 -49.460938 31.03125 -49.222656 32.28125 -48.640625 L 35.515625 -47.28125 C 35.453125 -48.019531 35.242188 -48.785156 34.890625 -49.578125 C 34.535156 -50.378906 34.40625 -50.867188 34.5 -51.046875 C 34.601562 -51.234375 34.875 -51.394531 35.3125 -51.53125 C 35.851562 -51.707031 37.140625 -51.5 39.171875 -50.90625 C 41.203125 -50.3125 42.765625 -49.835938 43.859375 -49.484375 C 44.953125 -49.128906 46.273438 -48.628906 47.828125 -47.984375 C 49.390625 -47.347656 50.203125 -46.867188 50.265625 -46.546875 C 50.335938 -46.222656 50.066406 -45.503906 49.453125 -44.390625 C 49.046875 -43.648438 48.628906 -42.117188 48.203125 -39.796875 C 47.785156 -37.484375 47.5625 -36.160156 47.53125 -35.828125 L 47.171875 -32.078125 C 46.898438 -29.410156 46.71875 -27.300781 46.625 -25.75 L 45.96875 -16.171875 C 45.789062 -14.273438 45.789062 -12.890625 45.96875 -12.015625 C 46.0625 -11.234375 46.269531 -10.65625 46.59375 -10.28125 C 46.914062 -9.914062 47.351562 -9.679688 47.90625 -9.578125 C 48.46875 -9.472656 49.304688 -9.84375 50.421875 -10.6875 C 51.265625 -11.332031 52.007812 -11.957031 52.65625 -12.5625 L 54.875 -14.796875 C 55.414062 -15.304688 55.796875 -15.515625 56.015625 -15.421875 C 56.234375 -15.335938 56.367188 -15 56.421875 -14.40625 C 56.472656 -13.820312 56.3125 -13.09375 55.9375 -12.21875 C 55.46875 -11.164062 55.03125 -10.21875 54.625 -9.375 C 54.21875 -8.53125 53.53125 -7.226562 52.5625 -5.46875 C 51.601562 -3.71875 50.582031 -2.222656 49.5 -0.984375 C 48.425781 0.242188 47.289062 1.269531 46.09375 2.09375 C 44.894531 2.925781 43.757812 3.425781 42.6875 3.59375 C 41.625 3.757812 40.4375 3.238281 39.125 2.03125 C 38.039062 1.113281 37.226562 -0.238281 36.6875 -2.03125 C 36.144531 -3.820312 35.890625 -5.320312 35.921875 -6.53125 Z M 35.875 -18.1875 C 36.039062 -19.34375 36.15625 -20.265625 36.21875 -20.953125 C 36.289062 -21.648438 36.335938 -23.523438 36.359375 -26.578125 C 36.378906 -29.640625 36.335938 -31.742188 36.234375 -32.890625 C 35.960938 -35.015625 35.4375 -36.539062 34.65625 -37.46875 C 33.882812 -38.40625 32.835938 -39.132812 31.515625 -39.65625 C 30.203125 -40.175781 28.632812 -40.367188 26.8125 -40.234375 C 24.71875 -40.066406 22.710938 -39.457031 20.796875 -38.40625 C 18.890625 -37.363281 17.257812 -35.796875 15.90625 -33.703125 C 14.5625 -31.609375 13.691406 -29.039062 13.296875 -26 C 12.910156 -22.957031 12.972656 -20.238281 13.484375 -17.84375 C 13.984375 -15.207031 14.816406 -13.429688 15.984375 -12.515625 C 17.148438 -11.597656 18.53125 -11.109375 20.125 -11.046875 C 21.46875 -10.941406 23.210938 -11.269531 25.359375 -12.03125 C 27.503906 -12.789062 29.59375 -13.878906 31.625 -15.296875 Z M 35.875 -18.1875 "/></g></g><g style="fill:#2e2e2e;fill-opacity:1;"><g transform="translate(360.324537, 100.067433)"><path style="stroke:none" d="M 35.671875 -18.5 L 26.953125 -0.046875 C 26.148438 1.566406 25.492188 2.578125 24.984375 2.984375 C 24.472656 3.390625 23.9375 3.554688 23.375 3.484375 C 22.820312 3.421875 22.328125 2.800781 21.890625 1.625 L 20.984375 -0.65625 L 17.28125 -9.265625 C 16.300781 -11.597656 15.007812 -15.320312 13.40625 -20.4375 C 11.800781 -25.5625 10.441406 -29.742188 9.328125 -32.984375 C 8.210938 -36.234375 7.382812 -38.597656 6.84375 -40.078125 L 5.921875 -42.46875 C 5.859375 -42.570312 5.460938 -43.269531 4.734375 -44.5625 C 4.015625 -45.863281 3.429688 -46.757812 2.984375 -47.25 C 2.546875 -47.738281 2.328125 -48.148438 2.328125 -48.484375 C 2.328125 -48.828125 2.664062 -49.148438 3.34375 -49.453125 C 3.644531 -49.554688 4.113281 -49.539062 4.75 -49.40625 C 5.394531 -49.269531 6.398438 -49.1875 7.765625 -49.15625 C 9.140625 -49.125 11.09375 -48.894531 13.625 -48.46875 C 16.164062 -48.050781 17.601562 -47.789062 17.9375 -47.6875 C 18.28125 -47.582031 18.539062 -47.425781 18.71875 -47.21875 C 18.90625 -47.019531 19.03125 -46.351562 19.09375 -45.21875 C 19.164062 -44.09375 19.21875 -43.242188 19.25 -42.671875 C 19.289062 -42.097656 19.34375 -41.570312 19.40625 -41.09375 L 19.96875 -37.296875 C 20.4375 -33.953125 20.707031 -32.144531 20.78125 -31.875 L 25.078125 -12.875 L 31.5625 -32.234375 C 32.238281 -34.253906 32.738281 -35.984375 33.0625 -37.421875 C 33.382812 -38.859375 33.710938 -39.851562 34.046875 -40.40625 C 34.390625 -40.96875 34.851562 -41.289062 35.4375 -41.375 C 36.03125 -41.457031 36.613281 -41.226562 37.1875 -40.6875 C 37.632812 -40.21875 38.007812 -39.484375 38.3125 -38.484375 C 38.613281 -37.492188 38.96875 -36.40625 39.375 -35.21875 C 39.78125 -34.03125 40.367188 -32.320312 41.140625 -30.09375 L 47.484375 -11 L 51.734375 -30.453125 C 52.035156 -31.910156 52.421875 -34.085938 52.890625 -36.984375 C 53.367188 -39.890625 53.648438 -41.800781 53.734375 -42.71875 C 53.816406 -43.632812 53.878906 -44.53125 53.921875 -45.40625 C 53.921875 -46.582031 53.742188 -47.59375 53.390625 -48.4375 C 53.035156 -49.289062 52.925781 -49.800781 53.0625 -49.96875 C 53.195312 -50.132812 53.445312 -50.25 53.8125 -50.3125 C 54.488281 -50.414062 55.179688 -50.320312 55.890625 -50.03125 C 56.597656 -49.75 57.785156 -49.296875 59.453125 -48.671875 C 61.128906 -48.046875 62.441406 -47.515625 63.390625 -47.078125 L 66.640625 -45.359375 C 67.679688 -44.773438 68.242188 -44.304688 68.328125 -43.953125 C 68.421875 -43.597656 68.160156 -42.914062 67.546875 -41.90625 C 67.078125 -41.132812 66.597656 -40.207031 66.109375 -39.125 C 65.617188 -38.039062 65.101562 -36.707031 64.5625 -35.125 L 63.546875 -32.234375 L 62.53125 -29.296875 C 62.0625 -27.910156 61.03125 -25.101562 59.4375 -20.875 C 57.851562 -16.65625 56.601562 -13.351562 55.6875 -10.96875 C 54.78125 -8.59375 53.816406 -6.320312 52.796875 -4.15625 L 51.328125 -1.0625 L 50.3125 1.109375 C 49.675781 2.535156 48.910156 3.296875 48.015625 3.390625 C 47.117188 3.492188 46.28125 2.734375 45.5 1.109375 Z M 35.671875 -18.5 "/></g></g></g></svg>